<?xml version="1.0" encoding="UTF-8" standalone="no"?>
<!-- Created with Inkscape (http://www.inkscape.org/) -->

<svg
   version="1.1"
   id="svg41"
   xml:space="preserve"
   width="706.38757"
   height="632.68109"
   viewBox="0 0 706.38757 632.68109"
   sodipodi:docname="HMC Lab.svg"
   inkscape:version="1.1.2 (b8e25be8, 2022-02-05)"
   inkscape:export-filename="/Users/larsgebraad/Downloads/HMC Lab.png"
   inkscape:export-xdpi="96"
   inkscape:export-ydpi="96"
   xmlns:inkscape="http://www.inkscape.org/namespaces/inkscape"
   xmlns:sodipodi="http://sodipodi.sourceforge.net/DTD/sodipodi-0.dtd"
   xmlns="http://www.w3.org/2000/svg"
   xmlns:svg="http://www.w3.org/2000/svg"><defs
     id="defs45" /><sodipodi:namedview
     id="namedview43"
     pagecolor="#ffffff"
     bordercolor="#111111"
     borderopacity="1"
     inkscape:pageshadow="0"
     inkscape:pageopacity="0"
     inkscape:pagecheckerboard="1"
     showgrid="false"
     fit-margin-top="0"
     fit-margin-left="0"
     fit-margin-right="0"
     fit-margin-bottom="0"
     inkscape:zoom="0.560625"
     inkscape:cx="58.862876"
     inkscape:cy="305.90858"
     inkscape:window-width="1312"
     inkscape:window-height="1081"
     inkscape:window-x="1258"
     inkscape:window-y="229"
     inkscape:window-maximized="0"
     inkscape:current-layer="g83" /><g
     id="g47"
     inkscape:groupmode="layer"
     inkscape:label="HMC Lab"
     transform="matrix(1.3333333,0,0,1.3333333,-448.45409,-314.98413)"><g
       id="g61"
       transform="translate(323.72036,614.45438)"><g
         id="g63"
         transform="translate(0,0.646153)"><g
           id="g65"
           transform="translate(0,-33.858434)"><g
             id="g67"
             transform="matrix(1,0,0,-1,0,1200)"><text
               transform="matrix(1,0,0,-1,0,1072.4493)"
               style="font-variant:normal;font-weight:normal;font-size:129.231px;font-family:Lato;-inkscape-font-specification:Lato-Regular;writing-mode:lr-tb;fill:#253a47;fill-opacity:1;fill-rule:nonzero;stroke:none"
               id="text71"><tspan
                 x="0 98.66761 218.65828"
                 y="0"
                 sodipodi:role="line"
                 id="tspan69">HMC</tspan></text></g></g></g><g
         id="g73"
         transform="translate(338.12126,0.646153)"><g
           id="g75"
           transform="translate(0,-33.858434)"><g
             id="g77"
             transform="matrix(1,0,0,-1,0,1200)"><text
               transform="matrix(1,0,0,-1,0,1072.4493)"
               style="font-variant:normal;font-weight:normal;font-size:129.231px;font-family:Lato;-inkscape-font-specification:Lato-Regular;writing-mode:lr-tb;fill:#253a47;fill-opacity:1;fill-rule:nonzero;stroke:none"
               id="text81"><tspan
                 x="0 66.359947 130.58759"
                 y="0"
                 sodipodi:role="line"
                 id="tspan79">Lab</tspan></text></g></g></g></g><g
       id="g83"
       transform="translate(433.1705,236.2381)"><g
         id="g219"
         transform="matrix(0,1,1,0,-2e-6,0)"><g
           id="g87"
           transform="matrix(5.678979,0,0,5.678979,-11.357957,-11.357957)"><path
             d="m 25,44 c 0,3.86 3.14,7 7,7 3.86,0 7,-3.14 7,-7 0,-3.86 -3.14,-7 -7,-7 -3.86,0 -7,3.14 -7,7 z m 12,0 c 0,2.757 -2.243,5 -5,5 -2.757,0 -5,-2.243 -5,-5 0,-2.757 2.243,-5 5,-5 2.757,0 5,2.243 5,5 z"
             style="fill:#253a47;fill-opacity:1;fill-rule:nonzero;stroke:none"
             id="path89" /></g><g
           id="g91"
           transform="matrix(5.678979,0,0,5.678979,-11.357957,-11.357957)"><path
             d="m 54,28 c 0,-3.86 -3.14,-7 -7,-7 -3.86,0 -7,3.14 -7,7 0,3.86 3.14,7 7,7 3.86,0 7,-3.14 7,-7 z m -12,0 c 0,-2.757 2.243,-5 5,-5 2.757,0 5,2.243 5,5 0,2.757 -2.243,5 -5,5 -2.757,0 -5,-2.243 -5,-5 z"
             style="fill:#253a47;fill-opacity:1;fill-rule:nonzero;stroke:none"
             id="path93" /></g><g
           id="g95"
           transform="matrix(5.678979,0,0,5.678979,-11.357957,-11.357957)"><path
             d="m 55,48 c -3.829,0 -6.946,3.091 -6.995,6.908 L 15.996,52.084 C 15.996,52.056 16,52.028 16,52 16,49.764 14.942,47.775 13.305,46.492 L 18.608,34.119 C 19.614,34.679 20.77,35 22,35 c 3.86,0 7,-3.14 7,-7 0,-0.978 -0.203,-1.908 -0.566,-2.754 L 44.623,14.454 C 45.822,15.419 47.344,16 49,16 52.86,16 56,12.86 56,9 56,5.14 52.86,2 49,2 45.481,2 42.568,4.613 42.08,8 H 15.92 C 15.432,4.613 12.519,2 9,2 5.14,2 2,5.14 2,9 c 0,3.86 3.14,7 7,7 3.519,0 6.432,-2.613 6.92,-6 h 26.16 c 0.157,1.091 0.561,2.102 1.162,2.97 L 27.389,23.539 C 26.104,21.989 24.166,21 22,21 c -3.86,0 -7,3.14 -7,7 0,1.887 0.754,3.599 1.972,4.859 L 11.558,45.491 C 10.765,45.178 9.904,45 9,45 c -3.86,0 -7,3.14 -7,7 0,3.86 3.14,7 7,7 3.141,0 5.805,-2.08 6.689,-4.935 L 48.28,56.941 C 49.123,59.858 51.814,62 55,62 c 3.86,0 7,-3.14 7,-7 0,-3.86 -3.14,-7 -7,-7 z M 49,4 c 2.757,0 5,2.243 5,5 0,2.757 -2.243,5 -5,5 -2.757,0 -5,-2.243 -5,-5 0,-2.757 2.243,-5 5,-5 z M 9,14 C 6.243,14 4,11.757 4,9 4,6.243 6.243,4 9,4 c 2.757,0 5,2.243 5,5 0,2.757 -2.243,5 -5,5 z m 13,9 c 2.757,0 5,2.243 5,5 0,2.757 -2.243,5 -5,5 -2.757,0 -5,-2.243 -5,-5 0,-2.757 2.243,-5 5,-5 z M 9,57 c -2.757,0 -5,-2.243 -5,-5 0,-2.757 2.243,-5 5,-5 2.757,0 5,2.243 5,5 0,2.757 -2.243,5 -5,5 z m 46,3 c -2.757,0 -5,-2.243 -5,-5 0,-2.757 2.243,-5 5,-5 2.757,0 5,2.243 5,5 0,2.757 -2.243,5 -5,5 z"
             style="fill:#253a47;fill-opacity:1;fill-rule:nonzero;stroke:none"
             id="path97" /></g></g></g></g></svg>
